<svg width="23" height="23" viewBox="0 0 23 23" fill="none" xmlns="http://www.w3.org/2000/svg">
<g clip-path="url(#clip0)">
<path d="M5.75 0V4.73093H13.1877V0H5.75ZM11.8397 3.38296H7.09797V1.34797H11.8397V3.38296Z" fill="#00347B"/>
<path d="M13.1878 0V4.73093H9.80706V3.38296H11.8398V1.34797H9.47119V0L13.1878 0Z" fill="#002659"/>
<path d="M17.9268 2.70654V23.0003H1.01343V2.70654H3.72016L4.67766 3.66765C11.0278 3.52804 8.62853 3.5807 14.4365 3.45332L15.2179 2.70654H17.9268Z" fill="#00429C"/>
<path d="M17.9268 2.70654V23.0003H9.47119V3.55487L14.2921 3.45332L15.1058 2.70654H17.9268Z" fill="#00347B"/>
<path d="M3.72021 2.70654H15.218V20.294H3.72021V2.70654Z" fill="#E5F2FA"/>
<path d="M9.47119 2.70654H15.2178V20.294H9.47119V2.70654Z" fill="#CEE9F8"/>
<path d="M21.9867 7.37034V10.7753C21.9867 11.9139 21.4722 12.9689 20.5753 13.6703C17.8022 15.8383 17.9315 15.74 17.927 15.7363L15.2836 13.6703C14.3868 12.9689 13.8723 11.9139 13.8723 10.7753V7.37034L15.595 5.41309H20.2644L21.9867 7.37034Z" fill="#7DD5F4"/>
<path d="M21.9866 7.37034V10.7753C21.9866 11.9139 21.4722 12.9689 20.5753 13.6703C17.8022 15.8383 17.9315 15.74 17.927 15.7363V5.41309H20.2644L21.9866 7.37034Z" fill="#6BA7FF"/>
<path d="M19.9593 9.13442V10.4824H18.6037V11.8385H17.2557V10.4824H15.8997V9.13442H17.2557V7.77881H18.6037V9.13442H19.9593Z" fill="#FF4D4D"/>
<path d="M19.9593 9.13442V10.4824H18.6037V11.8385H17.927V7.77881H18.6037V9.13442H19.9593Z" fill="#CC295F"/>
<path d="M7.10083 8.11963H11.8372V9.4676H7.10083V8.11963Z" fill="#FF4D4D"/>
<path d="M9.47119 8.11963H11.8371V9.4676H9.47119V8.11963Z" fill="#CC295F"/>
<path d="M7.10083 5.41309H11.8372V6.76106H7.10083V5.41309Z" fill="#FF4D4D"/>
<path d="M9.47119 5.41309H11.8371V6.76106H9.47119V5.41309Z" fill="#CC295F"/>
<path d="M7.10083 10.8262H11.8372V12.1741H7.10083V10.8262Z" fill="#FF4D4D"/>
<path d="M9.47119 10.8262H11.8371V12.1741H9.47119V10.8262Z" fill="#CC295F"/>
<path d="M7.10083 13.5327H12.5138V14.8807H7.10083V13.5327Z" fill="#FF4D4D"/>
<path d="M9.47119 13.5327H12.5138V14.8807H9.47119V13.5327Z" fill="#CC295F"/>
<path d="M7.10083 16.2393H13.1905V17.5872H7.10083V16.2393Z" fill="#FF4D4D"/>
<path d="M9.47119 16.2393H13.1905V17.5872H9.47119V16.2393Z" fill="#CC295F"/>
</g>
<defs>
<clipPath id="clip0">
<rect width="23" height="23" fill="white"/>
</clipPath>
</defs>
</svg>
