<svg width="21" height="21" viewBox="0 0 21 21" fill="none" xmlns="http://www.w3.org/2000/svg">
<path d="M1.53809 2.50195C1.53809 2.27542 1.72171 2.0918 1.94824 2.0918H16.2217C16.4482 2.0918 16.6318 2.27542 16.6318 2.50195V7.58789H1.53809V2.50195Z" fill="#F4E5E0"/>
<path d="M16.6318 2.50195V7.58789H15.4014V2.50195C15.4014 2.27555 15.2176 2.0918 14.9912 2.0918H16.2217C16.4481 2.0918 16.6318 2.27555 16.6318 2.50195Z" fill="#E6D6D1"/>
<path d="M20.2822 18.9082H10.5205C10.294 18.9082 10.1104 18.7246 10.1104 18.498V4.34766C10.1104 4.12113 10.294 3.9375 10.5205 3.9375H20.2822C20.5088 3.9375 20.6924 4.12113 20.6924 4.34766V18.498C20.6924 18.7246 20.5088 18.9082 20.2822 18.9082Z" fill="#FCF1F2"/>
<path d="M20.6924 4.34766V18.498C20.6924 18.7245 20.5086 18.9082 20.2822 18.9082H19.0518C19.2782 18.9082 19.4619 18.7245 19.4619 18.498V4.34766C19.4619 4.12125 19.2782 3.9375 19.0518 3.9375H20.2822C20.5086 3.9375 20.6924 4.12125 20.6924 4.34766Z" fill="#F4E5E0"/>
<path d="M0.307617 9.26953H10.1104V18.9082H0.717773C0.491244 18.9082 0.307617 18.7246 0.307617 18.498V9.26953Z" fill="#E29A6C"/>
<path d="M4.70679 6.95112L4.48424 6.01634C4.44023 5.83156 4.27518 5.70117 4.08524 5.70117H0.717773C0.491244 5.70117 0.307617 5.8848 0.307617 6.11133V9.26953H10.1104V7.42383H5.30529C5.02039 7.42387 4.77278 7.22827 4.70679 6.95112Z" fill="#736572"/>
<path d="M5.30542 7.42383H4.07495C3.78989 7.42383 3.54216 7.22818 3.47653 6.95092L3.25382 6.01617C3.20993 5.8316 3.04464 5.70117 2.85474 5.70117H4.08521C4.27511 5.70117 4.4404 5.8316 4.48429 6.01617L4.707 6.95092C4.77263 7.22818 5.02036 7.42383 5.30542 7.42383Z" fill="#615260"/>
<path d="M19.2568 6.80859H18.0264C17.9131 6.80859 17.8213 6.71676 17.8213 6.60352V5.37305C17.8213 5.2598 17.7295 5.16797 17.6162 5.16797H16.7959C16.6827 5.16797 16.5908 5.2598 16.5908 5.37305V6.60352C16.5908 6.71676 16.499 6.80859 16.3857 6.80859H15.1553C15.042 6.80859 14.9502 6.90043 14.9502 7.01367V7.83398C14.9502 7.94723 15.042 8.03906 15.1553 8.03906H16.3857C16.499 8.03906 16.5908 8.1309 16.5908 8.24414V9.47461C16.5908 9.58785 16.6827 9.67969 16.7959 9.67969H17.6162C17.7295 9.67969 17.8213 9.58785 17.8213 9.47461V8.24414C17.8213 8.1309 17.9131 8.03906 18.0264 8.03906H19.2568C19.3701 8.03906 19.4619 7.94723 19.4619 7.83398V7.01367C19.4619 6.90043 19.3701 6.80859 19.2568 6.80859Z" fill="#FF8D95"/>
<path d="M20.2822 3.62988H16.9395V2.50195C16.9395 2.10619 16.6174 1.78418 16.2217 1.78418H15.2373C15.0674 1.78418 14.9297 1.92187 14.9297 2.0918C14.9297 2.26172 15.0674 2.39941 15.2373 2.39941H16.2217C16.2782 2.39941 16.3242 2.44539 16.3242 2.50195V3.62988H10.5205C10.1247 3.62988 9.80273 3.9519 9.80273 4.34766V7.11621H5.30529C5.16223 7.11621 5.03918 7.019 5.00604 6.87984L4.78349 5.94505C4.70617 5.62033 4.41902 5.39355 4.08524 5.39355H1.8457V2.50195C1.8457 2.44539 1.89172 2.39941 1.94824 2.39941H13.8018C13.9716 2.39941 14.1094 2.26172 14.1094 2.0918C14.1094 1.92187 13.9716 1.78418 13.8018 1.78418H1.94824C1.55248 1.78418 1.23047 2.10619 1.23047 2.50195V5.39355H0.717773C0.322014 5.39355 0 5.71557 0 6.11133V9.26953C0 9.43946 0.13773 9.57715 0.307617 9.57715H9.80273V18.498C9.80273 18.533 9.8061 18.567 9.81094 18.6006H0.717773C0.661254 18.6006 0.615234 18.5546 0.615234 18.498V10.7051C0.615234 10.5352 0.477504 10.3975 0.307617 10.3975C0.13773 10.3975 0 10.5352 0 10.7051V18.498C0 18.8938 0.322014 19.2158 0.717773 19.2158H20.2822C20.678 19.2158 21 18.8938 21 18.498V4.34766C21 3.9519 20.678 3.62988 20.2822 3.62988ZM0.615234 8.96191V6.11133C0.615234 6.05477 0.661254 6.00879 0.717773 6.00879H4.08524C4.13294 6.00879 4.17395 6.04119 4.18499 6.08758L4.40754 7.02237C4.50696 7.43987 4.8761 7.73145 5.30529 7.73145H9.80273V8.96191H0.615234ZM20.3848 18.498C20.3848 18.5546 20.3387 18.6006 20.2822 18.6006H10.5205C10.464 18.6006 10.418 18.5546 10.418 18.498V4.34766C10.418 4.2911 10.464 4.24512 10.5205 4.24512H20.2822C20.3387 4.24512 20.3848 4.2911 20.3848 4.34766V18.498Z" fill="black"/>
<path d="M19.2568 6.50098H18.1289V5.37305C18.1289 5.09033 17.8989 4.86035 17.6162 4.86035H16.7959C16.5132 4.86035 16.2832 5.09033 16.2832 5.37305V6.50098H15.1553C14.8726 6.50098 14.6426 6.73095 14.6426 7.01367V7.83398C14.6426 8.11671 14.8726 8.34668 15.1553 8.34668H16.2832V9.47461C16.2832 9.75733 16.5132 9.9873 16.7959 9.9873H17.6162C17.8989 9.9873 18.1289 9.75733 18.1289 9.47461V8.34668H19.2568C19.5396 8.34668 19.7695 8.11671 19.7695 7.83398V7.01367C19.7695 6.73095 19.5396 6.50098 19.2568 6.50098ZM19.1543 7.73145H18.0264C17.7436 7.73145 17.5137 7.96142 17.5137 8.24414V9.37207H16.8984V8.24414C16.8984 7.96142 16.6685 7.73145 16.3857 7.73145H15.2578V7.11621H16.3857C16.6685 7.11621 16.8984 6.88624 16.8984 6.60352V5.47559H17.5137V6.60352C17.5137 6.88624 17.7436 7.11621 18.0264 7.11621H19.1543V7.73145Z" fill="black"/>
<path d="M11.3408 9.57715H14.9502C15.1201 9.57715 15.2578 9.43946 15.2578 9.26953C15.2578 9.0996 15.1201 8.96191 14.9502 8.96191H11.3408C11.1709 8.96191 11.0332 9.0996 11.0332 9.26953C11.0332 9.43946 11.1709 9.57715 11.3408 9.57715Z" fill="black"/>
<path d="M11.3408 8.34668H13.8428C14.0127 8.34668 14.1504 8.20899 14.1504 8.03906C14.1504 7.86913 14.0127 7.73145 13.8428 7.73145H11.3408C11.1709 7.73145 11.0332 7.86913 11.0332 8.03906C11.0332 8.20899 11.1709 8.34668 11.3408 8.34668Z" fill="black"/>
<path d="M11.3408 5.88574H14.9502C15.1201 5.88574 15.2578 5.74805 15.2578 5.57812C15.2578 5.4082 15.1201 5.27051 14.9502 5.27051H11.3408C11.1709 5.27051 11.0332 5.4082 11.0332 5.57812C11.0332 5.74805 11.1709 5.88574 11.3408 5.88574Z" fill="black"/>
<path d="M11.3408 7.11621H13.8428C14.0127 7.11621 14.1504 6.97852 14.1504 6.80859C14.1504 6.63867 14.0127 6.50098 13.8428 6.50098H11.3408C11.1709 6.50098 11.0332 6.63867 11.0332 6.80859C11.0332 6.97852 11.1709 7.11621 11.3408 7.11621Z" fill="black"/>
<path d="M19.4619 13.761H18.9612L18.2656 11.4358C18.2267 11.3057 18.1072 11.2166 17.9714 11.2163C17.9712 11.2163 17.9711 11.2163 17.9709 11.2163C17.8354 11.2163 17.7158 11.305 17.6765 11.4348L16.6249 14.9063L16.2022 13.9448C16.1531 13.8331 16.0426 13.761 15.9206 13.761H15.1925L14.5092 12.2088C14.4586 12.0938 14.3427 12.021 14.2174 12.0253C14.0918 12.0295 13.9814 12.1098 13.9385 12.2279L13.003 14.8076L12.7335 13.974C12.6924 13.847 12.5742 13.761 12.4408 13.761H11.3408C11.1709 13.761 11.0332 13.8986 11.0332 14.0686C11.0332 14.2385 11.1709 14.3762 11.3408 14.3762H12.2169L12.6936 15.8507C12.734 15.9758 12.8494 16.0614 12.9808 16.0637C13.1129 16.0664 13.2306 15.9845 13.2754 15.861L14.2553 13.1589L14.7103 14.1925C14.7594 14.3041 14.8699 14.3762 14.9918 14.3762H15.7198L16.3966 15.9154C16.446 16.0276 16.5567 16.0992 16.6781 16.0992C16.6843 16.0992 16.6904 16.099 16.6967 16.0986C16.8252 16.0909 16.9353 16.004 16.9726 15.8808L17.9691 12.5911L18.4374 14.1567C18.4764 14.287 18.5962 14.3762 18.7322 14.3762H19.4619C19.6318 14.3762 19.7695 14.2385 19.7695 14.0686C19.7695 13.8986 19.6318 13.761 19.4619 13.761Z" fill="black"/>
<path d="M19.4619 17.3701H17.9443C17.7744 17.3701 17.6367 17.5078 17.6367 17.6777C17.6367 17.8477 17.7744 17.9854 17.9443 17.9854H19.4619C19.6318 17.9854 19.7695 17.8477 19.7695 17.6777C19.7695 17.5078 19.6318 17.3701 19.4619 17.3701Z" fill="black"/>
<path d="M16.7139 17.3701H11.3408C11.1709 17.3701 11.0332 17.5078 11.0332 17.6777C11.0332 17.8477 11.1709 17.9854 11.3408 17.9854H16.7139C16.8838 17.9854 17.0215 17.8477 17.0215 17.6777C17.0215 17.5078 16.8838 17.3701 16.7139 17.3701Z" fill="black"/>
</svg>
