<svg width="21" height="21" viewBox="0 0 21 21" fill="none" xmlns="http://www.w3.org/2000/svg">
<g clip-path="url(#clip0)">
<path d="M3.2047 9.77812L4.31945 14.906C4.73411 16.8135 4.59009 18.8 3.9047 20.6278H17.0976C16.4122 18.8 16.2682 16.8135 16.6828 14.906L17.7976 9.77812L20.6511 7.32812V5.67787C20.6511 4.07641 19.3529 2.77812 17.7514 2.77812C17.7513 2.77812 17.7512 2.77812 17.751 2.77812H12.9501V0.328125H8.0501V2.77812H3.25125C1.64978 2.77734 0.350885 4.07501 0.350098 5.67647C0.350098 5.67696 0.350098 5.67739 0.350098 5.67787V7.32812L3.2047 9.77812Z" fill="#F8C09C"/>
<path d="M1.05103 5.22852H19.951V15.7285H1.05103V5.22852Z" fill="#A9BFD1"/>
<path d="M1.75098 5.92822H19.251V15.0282H1.75098V5.92822Z" fill="#7D8F9F"/>
<path d="M1.75 5.92822V8.53012L3.20355 9.77822L4.3183 14.9061C4.32705 14.9463 4.33195 14.9873 4.34035 15.0282H16.66C16.6684 14.9873 16.6733 14.9463 16.6821 14.9061L17.7975 9.77822L19.25 8.53012V5.92822H1.75Z" fill="#EF937D"/>
<path d="M12.6459 12.9286H13.2549C13.5107 12.9287 13.7583 13.0184 13.9549 13.182L14.2216 13.4043C14.6172 13.7337 15.2049 13.68 15.5343 13.2844C15.6737 13.117 15.75 12.906 15.75 12.6882C15.7501 11.0491 15.099 9.47722 13.9398 8.31841C13.306 7.68461 12.4464 7.32857 11.55 7.32861V11.8338C11.55 12.4384 12.0402 12.9286 12.6448 12.9286C12.6452 12.9286 12.6455 12.9286 12.6459 12.9286Z" fill="#DD527C"/>
<path d="M8.35629 12.9345H7.74729C7.49149 12.9347 7.24386 13.0245 7.04729 13.1882L6.78059 13.4105C6.38597 13.741 5.79814 13.6891 5.46757 13.2945C5.32669 13.1263 5.24965 12.9138 5.25 12.6944C5.24996 11.0554 5.90096 9.48356 7.05985 8.32462C7.69374 7.69064 8.55352 7.33447 9.45 7.33447V11.84C9.45004 12.4442 8.96048 12.9341 8.35629 12.9345Z" fill="#DD527C"/>
<path d="M19.2501 15.4001C19.4434 15.4001 19.6001 15.2434 19.6001 15.0501V5.9501C19.6001 5.75681 19.4434 5.6001 19.2501 5.6001H1.75015C1.55686 5.6001 1.40015 5.75681 1.40015 5.9501V15.0501C1.40015 15.2434 1.55686 15.4001 1.75015 15.4001H4.0479C4.35187 17.1205 4.18934 18.891 3.57715 20.5272C3.50929 20.7082 3.60103 20.91 3.78203 20.9778C3.82127 20.9925 3.86283 21.0001 3.90475 21.0001H17.0976C17.2909 21 17.4476 20.8433 17.4475 20.65C17.4475 20.6081 17.4399 20.5665 17.4252 20.5272C16.8127 18.891 16.6498 17.1206 16.9534 15.4001H19.2501ZM2.10015 6.3001H10.1501V8.56285L9.80015 8.7963V7.3564C9.80015 7.16311 9.64344 7.0064 9.45015 7.0064C8.46035 7.00347 7.51058 7.39695 6.8129 8.0991C5.58392 9.32073 4.89512 10.9834 4.90015 12.7163C4.89726 13.2145 5.18588 13.6685 5.6383 13.8772C5.80984 13.9581 5.99713 14 6.18675 14.0001C6.48595 13.9994 6.7754 13.8935 7.00435 13.7008L7.2707 13.4789C7.40462 13.3673 7.5734 13.3061 7.74775 13.306H8.3564C9.15326 13.3045 9.79879 12.6588 9.80015 11.8619V9.63735L10.5001 9.1701L11.2001 9.63665V11.8546C11.2005 12.6529 11.8477 13.2999 12.646 13.3001H13.2546C13.4288 13.3001 13.5975 13.3612 13.7313 13.4726L13.998 13.6945C14.2271 13.8872 14.5167 13.9932 14.816 13.9938C15.005 13.9935 15.1916 13.9517 15.3627 13.8713C15.8149 13.662 16.1032 13.2079 16.1001 12.7096C16.1047 10.9769 15.416 9.31434 14.1874 8.09245C13.4895 7.39065 12.5399 6.9973 11.5501 7.0001C11.3569 7.0001 11.2001 7.15681 11.2001 7.3501V8.7963L10.8501 8.56285V6.3001H18.9001V14.7001H17.0906L18.1406 9.8743L17.4564 9.7259L16.3742 14.7001H4.6282L3.54705 9.7259L2.8628 9.8743L3.9128 14.7001H2.10015V6.3001ZM9.10015 7.726V11.8619C9.09936 12.2729 8.76629 12.6058 8.35535 12.6064H7.74775C7.4096 12.6065 7.08222 12.725 6.82235 12.9413L6.55565 13.1632C6.30951 13.3697 5.94258 13.3375 5.73617 13.0914C5.64805 12.9863 5.59988 12.8535 5.60015 12.7163C5.59568 11.1692 6.21063 9.68473 7.3078 8.594C7.78913 8.10925 8.42137 7.80308 9.10015 7.726ZM11.9001 11.856V7.72005C12.5788 7.79709 13.2109 8.10299 13.6925 8.58735C14.7895 9.67821 15.4044 11.1626 15.4001 12.7096C15.4003 13.0311 15.1398 13.2918 14.8184 13.292C14.682 13.292 14.55 13.2442 14.4453 13.1569L14.1786 12.9347C13.9189 12.7191 13.5922 12.6008 13.2546 12.6001H12.646C12.2344 12.6003 11.9005 12.2669 11.9001 11.8553V11.856ZM16.6052 20.3001H4.39685C4.90492 18.7187 5.02943 17.0391 4.76015 15.4001H16.2401C15.9716 17.0393 16.0967 18.7188 16.6052 20.3001Z" fill="black"/>
<path d="M17.7509 2.45H13.3V0.35C13.3 0.156712 13.1433 0 12.95 0H8.05C7.85671 0 7.7 0.156712 7.7 0.35V2.45H3.25115C1.45687 2.4521 0.0027125 3.90582 0 5.7001V7.35H0.7V5.7001C0.701531 4.29196 1.84301 3.15096 3.25115 3.15H8.05C8.24329 3.15 8.4 2.99329 8.4 2.8V0.7H12.6V2.8C12.6 2.99329 12.7567 3.15 12.95 3.15H17.7509C19.1578 3.15328 20.2973 4.29323 20.3 5.7001V7.35H21V5.7001C20.9973 3.90666 19.5444 2.45328 17.7509 2.45Z" fill="black"/>
<path d="M7.35112 11.5502H8.05112V10.6451L8.64857 10.0476L8.15367 9.55273L7.55622 10.1502H6.65112V10.8502H7.35112V11.5502Z" fill="black"/>
<path d="M12.951 11.5502H13.651V10.8502H14.351V10.1502H13.4459L12.8484 9.55273L12.3535 10.0476L12.951 10.6451V11.5502Z" fill="black"/>
</g>
<defs>
<clipPath id="clip0">
<rect width="21" height="21" fill="white"/>
</clipPath>
</defs>
</svg>
