<svg width="95" height="63" viewBox="0 0 95 63" fill="none" xmlns="http://www.w3.org/2000/svg">
<path d="M20.3454 40.2334C20.3454 39.5088 20.4867 38.8571 20.7692 38.2783C21.0563 37.6995 21.4528 37.2529 21.9587 36.9385C22.4691 36.624 23.0502 36.4668 23.7018 36.4668C24.709 36.4668 25.5225 36.8154 26.1423 37.5127C26.7666 38.21 27.0788 39.1374 27.0788 40.2949V40.3838C27.0788 41.1038 26.9398 41.751 26.6618 42.3252C26.3884 42.8949 25.9942 43.3392 25.4792 43.6582C24.9688 43.9772 24.3809 44.1367 23.7155 44.1367C22.7129 44.1367 21.8994 43.7881 21.2751 43.0908C20.6553 42.3936 20.3454 41.4707 20.3454 40.3223V40.2334ZM21.6169 40.3838C21.6169 41.2041 21.806 41.8626 22.1843 42.3594C22.5671 42.8561 23.0775 43.1045 23.7155 43.1045C24.3581 43.1045 24.8685 42.8538 25.2468 42.3525C25.625 41.8467 25.8142 41.1403 25.8142 40.2334C25.8142 39.4222 25.6205 38.766 25.2331 38.2646C24.8503 37.7588 24.3399 37.5059 23.7018 37.5059C23.0775 37.5059 22.5739 37.7542 22.1911 38.251C21.8083 38.7477 21.6169 39.4587 21.6169 40.3838ZM34.0104 37.6289H31.529V44H30.2643V37.6289H27.8308V36.6035H34.0104V37.6289ZM37.5446 40.8486H36.6218V44H35.3503V36.6035H36.6218V39.7344H37.4489L39.9372 36.6035H41.4684L38.5427 40.1582L41.7145 44H40.1081L37.5446 40.8486ZM49.0495 40.3838C49.0495 41.5094 48.792 42.4163 48.277 43.1045C47.7621 43.7926 47.0648 44.1367 46.1852 44.1367C45.2875 44.1367 44.5811 43.8519 44.0661 43.2822V46.8438H42.8015V36.6035H43.9567L44.0183 37.4238C44.5332 36.7858 45.2487 36.4668 46.1647 36.4668C47.0534 36.4668 47.7552 36.8018 48.2702 37.4717C48.7897 38.1416 49.0495 39.0736 49.0495 40.2676V40.3838ZM47.7849 40.2402C47.7849 39.4062 47.6071 38.7477 47.2517 38.2646C46.8962 37.7816 46.4086 37.54 45.7888 37.54C45.0231 37.54 44.4489 37.8796 44.0661 38.5586V42.0928C44.4444 42.7673 45.0231 43.1045 45.8024 43.1045C46.4086 43.1045 46.8893 42.8652 47.2448 42.3867C47.6048 41.9036 47.7849 41.1882 47.7849 40.2402ZM52.0436 39.1533H53.9645C54.8031 39.1624 55.4662 39.3812 55.9538 39.8096C56.4414 40.238 56.6852 40.819 56.6852 41.5527C56.6852 42.291 56.4346 42.8835 55.9333 43.3301C55.432 43.7767 54.7575 44 53.9099 44H50.779V36.6035H52.0436V39.1533ZM59.3239 44H58.0524V36.6035H59.3239V44ZM52.0436 40.1855V42.9678H53.9235C54.3975 42.9678 54.7643 42.847 55.0241 42.6055C55.2839 42.3594 55.4138 42.0244 55.4138 41.6006C55.4138 41.1904 55.2862 40.8555 55.0309 40.5957C54.7803 40.3314 54.4271 40.1947 53.9714 40.1855H52.0436ZM67.028 37.6289H64.5466V44H63.2819V37.6289H60.8483V36.6035H67.028V37.6289ZM69.6393 39.1533H71.5602C72.3988 39.1624 73.0619 39.3812 73.5495 39.8096C74.0371 40.238 74.2809 40.819 74.2809 41.5527C74.2809 42.291 74.0303 42.8835 73.529 43.3301C73.0277 43.7767 72.3532 44 71.5056 44H68.3747V36.6035H69.6393V39.1533ZM69.6393 40.1855V42.9678H71.5192C71.9932 42.9678 72.36 42.847 72.6198 42.6055C72.8796 42.3594 73.0095 42.0244 73.0095 41.6006C73.0095 41.1904 72.8819 40.8555 72.6266 40.5957C72.376 40.3314 72.0228 40.1947 71.5671 40.1855H69.6393ZM32.6091 56.8486H31.6862V60H30.4147V52.6035H31.6862V55.7344H32.5134L35.0017 52.6035H36.5329L33.6071 56.1582L36.779 60H35.1726L32.6091 56.8486ZM42.4323 60C42.3594 59.8542 42.3002 59.5944 42.2546 59.2207C41.6667 59.8314 40.9649 60.1367 40.1491 60.1367C39.4199 60.1367 38.8207 59.9316 38.3513 59.5215C37.8864 59.1068 37.654 58.5827 37.654 57.9492C37.654 57.179 37.9457 56.582 38.529 56.1582C39.1169 55.7298 39.9418 55.5156 41.0036 55.5156H42.2341V54.9346C42.2341 54.4925 42.1019 54.1416 41.8376 53.8818C41.5733 53.6175 41.1836 53.4854 40.6686 53.4854C40.2175 53.4854 39.8392 53.5993 39.5339 53.8271C39.2285 54.055 39.0759 54.3307 39.0759 54.6543H37.8044C37.8044 54.2852 37.9343 53.9297 38.194 53.5879C38.4584 53.2415 38.8138 52.9681 39.2604 52.7676C39.7116 52.5671 40.2061 52.4668 40.7438 52.4668C41.5961 52.4668 42.2637 52.681 42.7468 53.1094C43.2298 53.5332 43.4805 54.1188 43.4987 54.8662V58.2705C43.4987 58.9495 43.5853 59.4896 43.7585 59.8906V60H42.4323ZM40.3337 59.0361C40.7302 59.0361 41.1061 58.9336 41.4616 58.7285C41.8171 58.5234 42.0746 58.2568 42.2341 57.9287V56.4111H41.2429C39.6934 56.4111 38.9186 56.8646 38.9186 57.7715C38.9186 58.168 39.0508 58.4779 39.3151 58.7012C39.5795 58.9245 39.919 59.0361 40.3337 59.0361ZM51.7292 56.3838C51.7292 57.5094 51.4717 58.4163 50.9567 59.1045C50.4418 59.7926 49.7445 60.1367 48.8649 60.1367C47.9671 60.1367 47.2608 59.8519 46.7458 59.2822V62.8438H45.4811V52.6035H46.6364L46.6979 53.4238C47.2129 52.7858 47.9284 52.4668 48.8444 52.4668C49.7331 52.4668 50.4349 52.8018 50.9499 53.4717C51.4694 54.1416 51.7292 55.0736 51.7292 56.2676V56.3838ZM50.4645 56.2402C50.4645 55.4062 50.2868 54.7477 49.9313 54.2646C49.5759 53.7816 49.0882 53.54 48.4684 53.54C47.7028 53.54 47.1286 53.8796 46.7458 54.5586V58.0928C47.124 58.7673 47.7028 59.1045 48.4821 59.1045C49.0882 59.1045 49.569 58.8652 49.9245 58.3867C50.2845 57.9036 50.4645 57.1882 50.4645 56.2402ZM58.2917 53.6289H55.8102V60H54.5456V53.6289H52.112V52.6035H58.2917V53.6289ZM62.0241 58.1475L63.7468 52.6035H65.1003L62.1267 61.1416C61.6664 62.3721 60.9349 62.9873 59.9323 62.9873L59.6931 62.9668L59.2214 62.8779V61.8525L59.5632 61.8799C59.9916 61.8799 60.3242 61.7933 60.5612 61.6201C60.8028 61.4469 61.001 61.1302 61.1559 60.6699L61.4362 59.918L58.7976 52.6035H60.1784L62.0241 58.1475Z" fill="#B9C0C8"/>
<path d="M43.9688 2.93555L38.6289 5.07227C38.2489 5.22427 38 5.591 38 6V20C38 20.707 38.7141 21.1907 39.3711 20.9277L44.0312 19.0645L50.0312 21.0645L55.3711 18.9277C55.7511 18.7757 56 18.409 56 18V4C56 3.293 55.2859 2.80927 54.6289 3.07227L49.9688 4.93555L43.9688 2.93555ZM45 5.38672L49 6.7207V18.6133L45 17.2793V5.38672ZM43 5.47656V17.3223L40 18.5234V6.67773L43 5.47656ZM54 5.47656V17.3223L51 18.5234V6.67773L54 5.47656Z" fill="#B9C0C8"/>
<path d="M54 5.47656V17.3223L51 18.5234V6.67773L54 5.47656Z" fill="#B9C0C8"/>
<path d="M43 5.47656V17.3223L40 18.5234V6.67773L43 5.47656Z" fill="#B9C0C8"/>
</svg>
