<svg width="95" height="67" viewBox="0 0 95 67" fill="none" xmlns="http://www.w3.org/2000/svg">
<path d="M9.0661 47.1045C9.51728 47.1045 9.91148 46.9678 10.2487 46.6943C10.586 46.4209 10.7728 46.0791 10.8093 45.6689H12.0056C11.9828 46.0928 11.8369 46.4961 11.5681 46.8789C11.2992 47.2617 10.9392 47.5671 10.488 47.7949C10.0414 48.0228 9.56741 48.1367 9.0661 48.1367C8.05894 48.1367 7.25686 47.8018 6.65985 47.1318C6.06741 46.4574 5.77118 45.5368 5.77118 44.3701V44.1582C5.77118 43.4382 5.90334 42.7979 6.16767 42.2373C6.43199 41.6768 6.81025 41.2415 7.30243 40.9316C7.79918 40.6217 8.38479 40.4668 9.05927 40.4668C9.8887 40.4668 10.5768 40.7152 11.1237 41.2119C11.6752 41.7087 11.9691 42.3535 12.0056 43.1465H10.8093C10.7728 42.668 10.5905 42.276 10.2624 41.9707C9.93883 41.6608 9.53778 41.5059 9.05927 41.5059C8.41669 41.5059 7.91767 41.7383 7.5622 42.2031C7.21129 42.6634 7.03583 43.3311 7.03583 44.2061V44.4453C7.03583 45.2975 7.21129 45.9538 7.5622 46.4141C7.91311 46.8743 8.41441 47.1045 9.0661 47.1045ZM15.7311 44.8486H14.8083V48H13.5368V40.6035H14.8083V43.7344H15.6354L18.1237 40.6035H19.655L16.7292 44.1582L19.9011 48H18.2946L15.7311 44.8486ZM25.5544 48C25.4815 47.8542 25.4222 47.5944 25.3767 47.2207C24.7888 47.8314 24.0869 48.1367 23.2712 48.1367C22.542 48.1367 21.9427 47.9316 21.4733 47.5215C21.0085 47.1068 20.7761 46.5827 20.7761 45.9492C20.7761 45.179 21.0677 44.582 21.6511 44.1582C22.239 43.7298 23.0638 43.5156 24.1257 43.5156H25.3561V42.9346C25.3561 42.4925 25.224 42.1416 24.9597 41.8818C24.6953 41.6175 24.3057 41.4854 23.7907 41.4854C23.3395 41.4854 22.9613 41.5993 22.6559 41.8271C22.3506 42.055 22.1979 42.3307 22.1979 42.6543H20.9265C20.9265 42.2852 21.0563 41.9297 21.3161 41.5879C21.5804 41.2415 21.9359 40.9681 22.3825 40.7676C22.8337 40.5671 23.3281 40.4668 23.8659 40.4668C24.7181 40.4668 25.3858 40.681 25.8688 41.1094C26.3519 41.5332 26.6026 42.1188 26.6208 42.8662V46.2705C26.6208 46.9495 26.7074 47.4896 26.8806 47.8906V48H25.5544ZM23.4558 47.0361C23.8522 47.0361 24.2282 46.9336 24.5837 46.7285C24.9392 46.5234 25.1966 46.2568 25.3561 45.9287V44.4111H24.3649C22.8155 44.4111 22.0407 44.8646 22.0407 45.7715C22.0407 46.168 22.1729 46.4779 22.4372 46.7012C22.7015 46.9245 23.041 47.0361 23.4558 47.0361ZM34.6462 48H33.3815V44.8418H29.9841V48H28.7126V40.6035H29.9841V43.8096H33.3815V40.6035H34.6462V48ZM41.4684 40.6035H42.7331V48H41.4684V42.6064L38.0573 48H36.7927V40.6035H38.0573V46.0039L41.4684 40.6035ZM51.0114 44.3838C51.0114 45.5094 50.7539 46.4163 50.239 47.1045C49.724 47.7926 49.0267 48.1367 48.1472 48.1367C47.2494 48.1367 46.543 47.8519 46.028 47.2822V50.8438H44.7634V40.6035H45.9186L45.9802 41.4238C46.4951 40.7858 47.2106 40.4668 48.1267 40.4668C49.0153 40.4668 49.7171 40.8018 50.2321 41.4717C50.7517 42.1416 51.0114 43.0736 51.0114 44.2676V44.3838ZM49.7468 44.2402C49.7468 43.4062 49.569 42.7477 49.2136 42.2646C48.8581 41.7816 48.3705 41.54 47.7507 41.54C46.9851 41.54 46.4108 41.8796 46.028 42.5586V46.0928C46.4063 46.7673 46.9851 47.1045 47.7643 47.1045C48.3705 47.1045 48.8513 46.8652 49.2067 46.3867C49.5668 45.9036 49.7468 45.1882 49.7468 44.2402ZM52.2897 44.2334C52.2897 43.5088 52.431 42.8571 52.7136 42.2783C53.0007 41.6995 53.3972 41.2529 53.903 40.9385C54.4134 40.624 54.9945 40.4668 55.6462 40.4668C56.6533 40.4668 57.4668 40.8154 58.0866 41.5127C58.711 42.21 59.0231 43.1374 59.0231 44.2949V44.3838C59.0231 45.1038 58.8841 45.751 58.6061 46.3252C58.3327 46.8949 57.9385 47.3392 57.4235 47.6582C56.9131 47.9772 56.3252 48.1367 55.6599 48.1367C54.6573 48.1367 53.8438 47.7881 53.2194 47.0908C52.5996 46.3936 52.2897 45.4707 52.2897 44.3223V44.2334ZM53.5612 44.3838C53.5612 45.2041 53.7503 45.8626 54.1286 46.3594C54.5114 46.8561 55.0218 47.1045 55.6599 47.1045C56.3024 47.1045 56.8128 46.8538 57.1911 46.3525C57.5694 45.8467 57.7585 45.1403 57.7585 44.2334C57.7585 43.4222 57.5648 42.766 57.1774 42.2646C56.7946 41.7588 56.2842 41.5059 55.6462 41.5059C55.0218 41.5059 54.5183 41.7542 54.1354 42.251C53.7526 42.7477 53.5612 43.4587 53.5612 44.3838ZM60.7253 48V40.6035H63.6101C64.5944 40.6035 65.3487 40.7767 65.8727 41.123C66.4014 41.4648 66.6657 41.9684 66.6657 42.6338C66.6657 42.9756 66.5632 43.2855 66.3581 43.5635C66.153 43.8369 65.85 44.0465 65.4489 44.1924C65.8955 44.2972 66.2533 44.5023 66.5222 44.8076C66.7956 45.113 66.9323 45.4775 66.9323 45.9014C66.9323 46.5804 66.6817 47.0999 66.1804 47.46C65.6836 47.82 64.9795 48 64.0681 48H60.7253ZM61.9899 44.7529V46.9814H64.0817C64.6104 46.9814 65.0046 46.8835 65.2643 46.6875C65.5287 46.4915 65.6608 46.2158 65.6608 45.8604C65.6608 45.1221 65.1185 44.7529 64.0339 44.7529H61.9899ZM61.9899 43.7412H63.6237C64.8086 43.7412 65.4011 43.3949 65.4011 42.7021C65.4011 42.0094 64.8405 41.6517 63.7194 41.6289H61.9899V43.7412ZM73.1735 48C73.1006 47.8542 73.0414 47.5944 72.9958 47.2207C72.4079 47.8314 71.7061 48.1367 70.8903 48.1367C70.1612 48.1367 69.5619 47.9316 69.0925 47.5215C68.6276 47.1068 68.3952 46.5827 68.3952 45.9492C68.3952 45.179 68.6869 44.582 69.2702 44.1582C69.8581 43.7298 70.683 43.5156 71.7448 43.5156H72.9753V42.9346C72.9753 42.4925 72.8431 42.1416 72.5788 41.8818C72.3145 41.6175 71.9248 41.4854 71.4099 41.4854C70.9587 41.4854 70.5804 41.5993 70.2751 41.8271C69.9697 42.055 69.8171 42.3307 69.8171 42.6543H68.5456C68.5456 42.2852 68.6755 41.9297 68.9352 41.5879C69.1996 41.2415 69.555 40.9681 70.0016 40.7676C70.4528 40.5671 70.9473 40.4668 71.485 40.4668C72.3373 40.4668 73.0049 40.681 73.488 41.1094C73.971 41.5332 74.2217 42.1188 74.2399 42.8662V46.2705C74.2399 46.9495 74.3265 47.4896 74.4997 47.8906V48H73.1735ZM71.0749 47.0361C71.4714 47.0361 71.8474 46.9336 72.2028 46.7285C72.5583 46.5234 72.8158 46.2568 72.9753 45.9287V44.4111H71.9841C70.4346 44.4111 69.6599 44.8646 69.6599 45.7715C69.6599 46.168 69.792 46.4779 70.0563 46.7012C70.3207 46.9245 70.6602 47.0361 71.0749 47.0361ZM81.6091 41.6289H79.1276V48H77.863V41.6289H75.4294V40.6035H81.6091V41.6289ZM84.2204 43.1533H86.1413C86.9798 43.1624 87.6429 43.3812 88.1306 43.8096C88.6182 44.238 88.862 44.819 88.862 45.5527C88.862 46.291 88.6113 46.8835 88.11 47.3301C87.6087 47.7767 86.9343 48 86.0866 48H82.9557V40.6035H84.2204V43.1533ZM84.2204 44.1855V46.9678H86.1003C86.5742 46.9678 86.9411 46.847 87.2009 46.6055C87.4606 46.3594 87.5905 46.0244 87.5905 45.6006C87.5905 45.1904 87.4629 44.8555 87.2077 44.5957C86.9571 44.3314 86.6039 44.1947 86.1481 44.1855H84.2204ZM28.1999 60.2402C28.1999 59.0781 28.4665 58.1598 28.9997 57.4854C29.5329 56.8063 30.2484 56.4668 31.1462 56.4668C32.0212 56.4668 32.7116 56.7607 33.2175 57.3486L33.2722 56.6035H34.4343V66.8438H33.1696V63.3164C32.6592 63.8633 31.9802 64.1367 31.1325 64.1367C30.2393 64.1367 29.5261 63.7904 28.9929 63.0977C28.4642 62.4004 28.1999 61.4775 28.1999 60.3291V60.2402ZM29.4645 60.3838C29.4645 61.2314 29.6423 61.8968 29.9977 62.3799C30.3578 62.863 30.8408 63.1045 31.447 63.1045C32.1989 63.1045 32.7731 62.7718 33.1696 62.1064V58.4834C32.7686 57.8317 32.1989 57.5059 31.4606 57.5059C30.85 57.5059 30.3646 57.7497 30.0046 58.2373C29.6446 58.7204 29.4645 59.4359 29.4645 60.3838ZM40.0397 57.7383C39.8483 57.7064 39.641 57.6904 39.4177 57.6904C38.5882 57.6904 38.0254 58.0436 37.7292 58.75V64H36.4645V56.6035H37.695L37.7155 57.458C38.1302 56.7972 38.7181 56.4668 39.4792 56.4668C39.7253 56.4668 39.9121 56.4987 40.0397 56.5625V57.7383ZM46.9851 60.8486H46.0622V64H44.7907V56.6035H46.0622V59.7344H46.8893L49.3776 56.6035H50.9089L47.9831 60.1582L51.155 64H49.5485L46.9851 60.8486ZM51.7565 60.2334C51.7565 59.5088 51.8978 58.8571 52.1804 58.2783C52.4675 57.6995 52.864 57.2529 53.3698 56.9385C53.8802 56.624 54.4613 56.4668 55.113 56.4668C56.1201 56.4668 56.9336 56.8154 57.5534 57.5127C58.1778 58.21 58.4899 59.1374 58.4899 60.2949V60.3838C58.4899 61.1038 58.3509 61.751 58.0729 62.3252C57.7995 62.8949 57.4053 63.3392 56.8903 63.6582C56.3799 63.9772 55.792 64.1367 55.1267 64.1367C54.124 64.1367 53.3106 63.7881 52.6862 63.0908C52.0664 62.3936 51.7565 61.4707 51.7565 60.3223V60.2334ZM53.028 60.3838C53.028 61.2041 53.2171 61.8626 53.5954 62.3594C53.9782 62.8561 54.4886 63.1045 55.1267 63.1045C55.7692 63.1045 56.2796 62.8538 56.6579 62.3525C57.0362 61.8467 57.2253 61.1403 57.2253 60.2334C57.2253 59.4222 57.0316 58.766 56.6442 58.2646C56.2614 57.7588 55.751 57.5059 55.113 57.5059C54.4886 57.5059 53.9851 57.7542 53.6022 58.251C53.2194 58.7477 53.028 59.4587 53.028 60.3838ZM59.5222 62.9678L59.9597 62.4277C60.4518 61.7897 60.7321 60.8327 60.8005 59.5566L60.9167 56.6035H65.6813V62.9678H66.6315V66.1738H65.3669V64H60.2058V66.1738H58.9411L58.9479 62.9678H59.5222ZM61.0192 62.9678H64.4167V57.7725H62.1403L62.0651 59.5361C61.9877 61.0081 61.639 62.152 61.0192 62.9678Z" fill="#B9C0C8"/>
<path d="M34.8953 5.47567V14.1199C34.8953 14.4652 35.1752 14.745 35.5204 14.745H44.1648C44.5099 14.745 44.7899 14.4652 44.7899 14.1199V12.4808C44.7899 12.1355 44.5099 11.8557 44.1648 11.8557C43.8196 11.8557 43.5399 12.1355 43.5399 12.4808V13.495H36.1454V6.10057H43.5399V7.60541C43.5399 7.95073 43.8196 8.23069 44.1648 8.23069C44.5099 8.23069 44.7899 7.95073 44.7899 7.60541V5.47567C44.7899 5.13035 44.5099 4.85059 44.1648 4.85059H35.5204C35.1752 4.85059 34.8953 5.13035 34.8953 5.47567Z" fill="#B9C0C8"/>
<path d="M38.546 7.87598C38.2007 7.87598 37.9211 8.15574 37.9211 8.50087V11.0942C37.9211 11.4394 38.2007 11.7193 38.546 11.7193H41.1394C41.4845 11.7193 41.7645 11.4394 41.7645 11.0942V8.50087C41.7645 8.15574 41.4845 7.87598 41.1394 7.87598H38.546ZM40.5145 10.4693H39.1711V9.12596H40.5145V10.4693Z" fill="#B9C0C8"/>
<path d="M44.1648 19.2085H35.5204C35.1752 19.2085 34.8953 19.4883 34.8953 19.8334V28.478C34.8953 28.8232 35.1752 29.1029 35.5204 29.1029H44.1648C44.5099 29.1029 44.7899 28.8232 44.7899 28.478V19.8334C44.7899 19.4883 44.5099 19.2085 44.1648 19.2085ZM43.5399 27.8529H36.1454V20.4585H43.5399V27.8529Z" fill="#B9C0C8"/>
<path d="M49.922 14.745H58.5666C58.9115 14.745 59.1915 14.4652 59.1915 14.1199V5.47567C59.1915 5.13035 58.9115 4.85059 58.5666 4.85059H49.922C49.5768 4.85059 49.2969 5.13035 49.2969 5.47567V14.1199C49.2969 14.4652 49.5768 14.745 49.922 14.745ZM50.5469 6.10057H57.9413V13.495H50.5469V6.10057Z" fill="#B9C0C8"/>
<path d="M59.1915 28.478V19.8334C59.1915 19.4883 58.9115 19.2085 58.5666 19.2085H49.922C49.5768 19.2085 49.2969 19.4883 49.2969 19.8334V28.478C49.2969 28.8232 49.5768 29.1029 49.922 29.1029H58.5666C58.9115 29.1029 59.1915 28.8232 59.1915 28.478ZM57.9413 27.8529H50.5469V20.4585H57.9413V27.8529Z" fill="#B9C0C8"/>
<path d="M58.5666 17.6396C58.9116 17.6396 59.1915 17.3597 59.1915 17.0145C59.1915 16.6692 58.9116 16.3896 58.5666 16.3896H47.6081V5.40634C47.6081 5.06121 47.3281 4.78125 46.9832 4.78125C46.6376 4.78125 46.3579 5.06121 46.3579 5.40634V16.3896H38.0619C37.717 16.3896 37.437 16.6694 37.437 17.0145C37.437 17.3599 37.717 17.6396 38.0619 17.6396H46.3579V28.4782C46.3579 28.8233 46.6376 29.1031 46.9832 29.1031C47.3281 29.1031 47.6081 28.8233 47.6081 28.4782V17.6396H58.5666Z" fill="#B9C0C8"/>
<path d="M38.546 26.1241H41.1394C41.4845 26.1241 41.7645 25.8441 41.7645 25.499V22.9057C41.7645 22.5603 41.4845 22.2808 41.1394 22.2808H38.546C38.2007 22.2808 37.9211 22.5603 37.9211 22.9057V25.499C37.9211 25.8441 38.2007 26.1241 38.546 26.1241ZM39.1711 23.5307H40.5145V24.8741H39.1711V23.5307Z" fill="#B9C0C8"/>
<path d="M55.5407 7.87598H52.9474C52.6022 7.87598 52.3223 8.15574 52.3223 8.50087V11.0942C52.3223 11.4394 52.6022 11.7193 52.9474 11.7193H55.5407C55.886 11.7193 56.1658 11.4394 56.1658 11.0942V8.50087C56.1658 8.15574 55.886 7.87598 55.5407 7.87598ZM54.9156 10.4693H53.5726V9.12596H54.9156V10.4693Z" fill="#B9C0C8"/>
<path d="M52.9474 26.1241H55.5407C55.886 26.1241 56.1658 25.8441 56.1658 25.499V22.9057C56.1658 22.5603 55.886 22.2808 55.5407 22.2808H52.9474C52.6022 22.2808 52.3223 22.5603 52.3223 22.9057V25.499C52.3223 25.8441 52.6022 26.1241 52.9474 26.1241ZM53.5726 23.5307H54.9156V24.8741H53.5726V23.5307Z" fill="#B9C0C8"/>
<path d="M35.3939 16.3922L35.3602 16.4C35.0242 16.4794 34.816 16.816 34.8952 17.1519C34.9631 17.4397 35.2197 17.6338 35.503 17.6338C35.5507 17.6338 35.5987 17.6282 35.647 17.6167L35.6804 17.6089C36.0166 17.5298 36.2248 17.1932 36.1454 16.8572C36.0664 16.5214 35.7298 16.3132 35.3939 16.3922Z" fill="#B9C0C8"/>
<path d="M44.0388 9.41946L44.0052 9.42744C43.6692 9.50623 43.4608 9.84261 43.5396 10.1788C43.6069 10.4669 43.8637 10.6613 44.1476 10.6613C44.1947 10.6613 44.2425 10.6558 44.2908 10.6443L44.3242 10.6366C44.6604 10.5578 44.8688 10.2212 44.79 9.88541C44.7112 9.54942 44.3746 9.34067 44.0388 9.41946Z" fill="#B9C0C8"/>
<path d="M31.6708 6.19868C32.0163 6.19868 32.2959 5.91891 32.2959 5.57378V2.32908H35.4225C35.7678 2.32908 36.0478 2.04952 36.0478 1.70419C36.0478 1.35906 35.7678 1.0791 35.4225 1.0791H31.6708C31.3259 1.0791 31.0459 1.35906 31.0459 1.70419V5.57378C31.0459 5.91891 31.3259 6.19868 31.6708 6.19868Z" fill="#B9C0C8"/>
<path d="M62.2959 1.0791H58.5442C58.1989 1.0791 57.9189 1.35906 57.9189 1.70419C57.9189 2.04952 58.1989 2.32908 58.5442 2.32908H61.6708V5.57378C61.6708 5.91891 61.9504 6.19868 62.2959 6.19868C62.6409 6.19868 62.9208 5.91891 62.9208 5.57378V1.70419C62.9208 1.35906 62.6409 1.0791 62.2959 1.0791Z" fill="#B9C0C8"/>
<path d="M35.4225 31.677H32.2959V28.4325C32.2959 28.0876 32.0163 27.8076 31.6708 27.8076C31.3259 27.8076 31.0459 28.0876 31.0459 28.4325V32.3021C31.0459 32.6472 31.3259 32.9272 31.6708 32.9272H35.4225C35.7678 32.9272 36.0478 32.6472 36.0478 32.3021C36.0478 31.9568 35.7678 31.677 35.4225 31.677Z" fill="#B9C0C8"/>
<path d="M62.2959 27.8076C61.9504 27.8076 61.6708 28.0876 61.6708 28.4325V31.677H58.5442C58.1989 31.677 57.9189 31.9568 57.9189 32.3021C57.9189 32.6472 58.1989 32.9272 58.5442 32.9272H62.2959C62.6409 32.9272 62.9208 32.6472 62.9208 32.3021V28.4325C62.9208 28.0876 62.6409 27.8076 62.2959 27.8076Z" fill="#B9C0C8"/>
</svg>
