<svg width="23" height="23" viewBox="0 0 23 23" fill="none" xmlns="http://www.w3.org/2000/svg">
<g clip-path="url(#clip0)">
<path d="M15.8906 3.875L13.7344 2.07812H9.42188C9.42188 2.55469 9.61119 3.01173 9.94817 3.34871C10.2851 3.68569 10.7422 3.875 11.2188 3.875H5.82812C5.6375 3.875 5.45468 3.95073 5.31989 4.08552C5.1851 4.22031 5.10938 4.40313 5.10938 4.59375C5.10938 4.78437 5.1851 4.96719 5.31989 5.10198C5.45468 5.23677 5.6375 5.3125 5.82812 5.3125C5.6375 5.3125 5.45468 5.38823 5.31989 5.52302C5.1851 5.65781 5.10938 5.84063 5.10938 6.03125C5.10938 6.22187 5.1851 6.40469 5.31989 6.53948C5.45468 6.67427 5.6375 6.75 5.82812 6.75C5.6375 6.75 5.45468 6.82573 5.31989 6.96052C5.1851 7.09531 5.10938 7.27813 5.10938 7.46875C5.10938 7.65937 5.1851 7.84219 5.31989 7.97698C5.45468 8.11177 5.6375 8.1875 5.82812 8.1875C5.6375 8.1875 5.45468 8.26323 5.31989 8.39802C5.1851 8.53281 5.10938 8.71563 5.10938 8.90625C5.10938 9.09687 5.1851 9.27969 5.31989 9.41448C5.45468 9.54927 5.6375 9.625 5.82812 9.625H18.7656V3.875H15.8906Z" fill="#4DB7E5"/>
<path d="M10.1406 7.82812H5.82812C5.62965 7.82812 5.46875 7.98902 5.46875 8.1875C5.46875 8.38598 5.62965 8.54688 5.82812 8.54688H10.1406C10.3391 8.54688 10.5 8.38598 10.5 8.1875C10.5 7.98902 10.3391 7.82812 10.1406 7.82812Z" fill="#3BA6D4"/>
<path d="M10.1406 6.39062H5.82812C5.62965 6.39062 5.46875 6.55152 5.46875 6.75C5.46875 6.94848 5.62965 7.10938 5.82812 7.10938H10.1406C10.3391 7.10938 10.5 6.94848 10.5 6.75C10.5 6.55152 10.3391 6.39062 10.1406 6.39062Z" fill="#3BA6D4"/>
<path d="M10.1406 4.95312H5.82812C5.62965 4.95312 5.46875 5.11402 5.46875 5.3125C5.46875 5.51098 5.62965 5.67188 5.82812 5.67188H10.1406C10.3391 5.67188 10.5 5.51098 10.5 5.3125C10.5 5.11402 10.3391 4.95312 10.1406 4.95312Z" fill="#3BA6D4"/>
<path d="M14.0941 6.75C14.0307 6.75005 13.9684 6.73332 13.9135 6.70151C13.8586 6.6697 13.8132 6.62394 13.7817 6.56888L12.4477 4.23438H11.2188C11.1234 4.23438 11.032 4.19651 10.9646 4.12912C10.8972 4.06172 10.8594 3.97031 10.8594 3.875C10.8594 3.77969 10.8972 3.68828 10.9646 3.62088C11.032 3.55349 11.1234 3.51562 11.2188 3.51562H12.6563C12.7196 3.51563 12.7818 3.53237 12.8366 3.56417C12.8914 3.59597 12.9368 3.6417 12.9683 3.6967L14.4058 6.21233C14.437 6.26696 14.4533 6.32883 14.4531 6.39175C14.4529 6.45467 14.4362 6.51644 14.4047 6.57087C14.3731 6.62531 14.3278 6.6705 14.2733 6.70194C14.2188 6.73337 14.157 6.74994 14.0941 6.75Z" fill="#3BA6D4"/>
<path d="M18.7656 4.23438H21.2812V9.26562H18.7656V4.23438Z" fill="#FEC9A3"/>
<path d="M16.9688 4.95312H17.6875V9.625H16.9688V4.95312Z" fill="#3BA6D4"/>
<path d="M21.2812 13.9375H20.5625V13.2188C20.5623 13.0282 20.4865 12.8455 20.3517 12.7108C20.217 12.576 20.0343 12.5002 19.8438 12.5H1.15625C0.965695 12.5002 0.783009 12.576 0.648266 12.7108C0.513524 12.8455 0.437726 13.0282 0.4375 13.2188V13.9375H-0.28125V13.2188C-0.280822 12.8376 -0.129234 12.4722 0.140257 12.2028C0.409748 11.9333 0.775133 11.7817 1.15625 11.7812H19.8438C20.2249 11.7817 20.5903 11.9333 20.8597 12.2028C21.1292 12.4722 21.2808 12.8376 21.2812 13.2188V13.9375Z" fill="#E0E0DE"/>
<path d="M16.25 12.5H19.125V20.0469C19.125 20.4281 18.9735 20.7938 18.704 21.0633C18.4344 21.3329 18.0687 21.4844 17.6875 21.4844C17.3063 21.4844 16.9406 21.3329 16.671 21.0633C16.4015 20.7938 16.25 20.4281 16.25 20.0469V12.5Z" fill="#A0DDE5"/>
<path d="M17.6875 13.9375C18.4814 13.9375 19.125 13.2939 19.125 12.5C19.125 11.7061 18.4814 11.0625 17.6875 11.0625C16.8936 11.0625 16.25 11.7061 16.25 12.5C16.25 13.2939 16.8936 13.9375 17.6875 13.9375Z" fill="#8FD0D9"/>
<path d="M16.25 17.5312H19.125V20.0469C19.125 20.4281 18.9735 20.7938 18.704 21.0633C18.4344 21.3329 18.0687 21.4844 17.6875 21.4844C17.3063 21.4844 16.9406 21.3329 16.671 21.0633C16.4015 20.7938 16.25 20.4281 16.25 20.0469V17.5312Z" fill="#D75246"/>
<path d="M11.5781 12.5H14.4531V20.0469C14.4531 20.4281 14.3017 20.7938 14.0321 21.0633C13.7625 21.3329 13.3969 21.4844 13.0156 21.4844C12.6344 21.4844 12.2687 21.3329 11.9992 21.0633C11.7296 20.7938 11.5781 20.4281 11.5781 20.0469V12.5Z" fill="#A0DDE5"/>
<path d="M13.0156 13.9375C13.8095 13.9375 14.4531 13.2939 14.4531 12.5C14.4531 11.7061 13.8095 11.0625 13.0156 11.0625C12.2217 11.0625 11.5781 11.7061 11.5781 12.5C11.5781 13.2939 12.2217 13.9375 13.0156 13.9375Z" fill="#8FD0D9"/>
<path d="M11.5781 17.5312H14.4531V20.0469C14.4531 20.4281 14.3017 20.7938 14.0321 21.0633C13.7625 21.3329 13.3969 21.4844 13.0156 21.4844C12.6344 21.4844 12.2687 21.3329 11.9992 21.0633C11.7296 20.7938 11.5781 20.4281 11.5781 20.0469V17.5312Z" fill="#D75246"/>
<path d="M6.54688 12.5H9.42188V20.0469C9.42188 20.4281 9.27042 20.7938 9.00084 21.0633C8.73126 21.3329 8.36562 21.4844 7.98438 21.4844C7.60313 21.4844 7.23749 21.3329 6.96791 21.0633C6.69833 20.7938 6.54688 20.4281 6.54688 20.0469V12.5Z" fill="#A0DDE5"/>
<path d="M7.98438 13.9375C8.77828 13.9375 9.42188 13.2939 9.42188 12.5C9.42188 11.7061 8.77828 11.0625 7.98438 11.0625C7.19047 11.0625 6.54688 11.7061 6.54688 12.5C6.54688 13.2939 7.19047 13.9375 7.98438 13.9375Z" fill="#8FD0D9"/>
<path d="M6.54688 17.5312H9.42188V20.0469C9.42188 20.4281 9.27042 20.7938 9.00084 21.0633C8.73126 21.3329 8.36562 21.4844 7.98438 21.4844C7.60313 21.4844 7.23749 21.3329 6.96791 21.0633C6.69833 20.7938 6.54688 20.4281 6.54688 20.0469V17.5312Z" fill="#D75246"/>
<path d="M1.875 12.5H4.75V20.0469C4.75 20.4281 4.59855 20.7938 4.32897 21.0633C4.05938 21.3329 3.69375 21.4844 3.3125 21.4844C2.93125 21.4844 2.56562 21.3329 2.29603 21.0633C2.02645 20.7938 1.875 20.4281 1.875 20.0469V12.5Z" fill="#A0DDE5"/>
<path d="M3.3125 13.9375C4.10641 13.9375 4.75 13.2939 4.75 12.5C4.75 11.7061 4.10641 11.0625 3.3125 11.0625C2.51859 11.0625 1.875 11.7061 1.875 12.5C1.875 13.2939 2.51859 13.9375 3.3125 13.9375Z" fill="#8FD0D9"/>
<path d="M1.875 17.5312H4.75V20.0469C4.75 20.4281 4.59855 20.7938 4.32897 21.0633C4.05938 21.3329 3.69375 21.4844 3.3125 21.4844C2.93125 21.4844 2.56562 21.3329 2.29603 21.0633C2.02645 20.7938 1.875 20.4281 1.875 20.0469V17.5312Z" fill="#D75246"/>
<path d="M20.5625 13.9375V14.6562C20.5623 14.8468 20.4865 15.0295 20.3517 15.1642C20.217 15.299 20.0343 15.3748 19.8438 15.375H1.15625C0.965695 15.3748 0.783009 15.299 0.648266 15.1642C0.513524 15.0295 0.437726 14.8468 0.4375 14.6562V13.9375H-0.28125V21.8438C-0.280822 22.2249 -0.129234 22.5903 0.140257 22.8597C0.409748 23.1292 0.775133 23.2808 1.15625 23.2812H19.8438C20.2249 23.2808 20.5903 23.1292 20.8597 22.8597C21.1292 22.5903 21.2808 22.2249 21.2812 21.8438V13.9375H20.5625ZM19.8438 22.5625H1.15625C0.965695 22.5623 0.783009 22.4865 0.648266 22.3517C0.513524 22.217 0.437726 22.0343 0.4375 21.8438V19.4943C0.655801 19.6211 0.903806 19.6878 1.15625 19.6875H19.8438C20.0962 19.6877 20.3442 19.621 20.5625 19.4941V21.8438C20.5623 22.0343 20.4865 22.217 20.3517 22.3517C20.217 22.4865 20.0343 22.5623 19.8438 22.5625ZM20.5625 18.25C20.5623 18.4406 20.4865 18.6232 20.3517 18.758C20.217 18.8927 20.0343 18.9685 19.8438 18.9688H1.15625C0.965695 18.9685 0.783009 18.8927 0.648266 18.758C0.513524 18.6232 0.437726 18.4406 0.4375 18.25V15.9006C0.655801 16.0274 0.903806 16.094 1.15625 16.0938H19.8438C20.0962 16.0939 20.3442 16.0272 20.5625 15.9004V18.25Z" fill="#E0E0DE"/>
<path d="M4.75 8.90625L3.67188 9.26562L3.3125 8.90625L3.67188 7.82812L7.26562 4.23438L8.34375 5.3125L4.75 8.90625Z" fill="#D6D6D4"/>
<path d="M5.46875 6.03125L6.54688 7.10938L4.75 8.90625L3.67188 9.26562L3.3125 8.90625L3.67188 7.82812L5.46875 6.03125Z" fill="#D75246"/>
<path d="M6.99114 3.95986L8.61829 5.58702C8.67663 5.64536 8.74588 5.69164 8.8221 5.72322C8.89833 5.75479 8.98002 5.77105 9.06252 5.77105C9.14503 5.77105 9.22672 5.75479 9.30294 5.72322C9.37917 5.69164 9.44842 5.64536 9.50676 5.58702C9.58924 5.50453 9.64713 5.40069 9.67393 5.28715C9.70073 5.17362 9.69539 5.05486 9.6585 4.94419L9.4219 4.23438L10.2767 3.37956C10.4197 3.23659 10.5 3.04268 10.5 2.84049C10.5 2.6383 10.4197 2.44439 10.2767 2.30142C10.1338 2.15845 9.93985 2.07812 9.73765 2.07812C9.53546 2.07814 9.34156 2.15846 9.19859 2.30143L8.34377 3.15625L7.63401 2.91965C7.52334 2.88276 7.40458 2.87741 7.29104 2.90421C7.1775 2.93102 7.07367 2.9889 6.99118 3.07139C6.93283 3.12972 6.88655 3.19898 6.85497 3.2752C6.82339 3.35142 6.80713 3.43311 6.80713 3.51562C6.80712 3.59812 6.82337 3.67982 6.85494 3.75604C6.88652 3.83226 6.93279 3.90152 6.99114 3.95986Z" fill="#348FD9"/>
<path d="M2.59375 11.0625C2.59375 11.2531 2.66948 11.4359 2.80427 11.5707C2.93906 11.7055 3.12188 11.7812 3.3125 11.7812C3.50312 11.7812 3.68594 11.7055 3.82073 11.5707C3.95552 11.4359 4.03125 11.2531 4.03125 11.0625C4.03125 10.8262 3.97622 10.5931 3.87052 10.3817L3.3125 9.26562L2.75448 10.3817C2.64878 10.5931 2.59375 10.8262 2.59375 11.0625Z" fill="#D75246"/>
<path d="M4.39062 3.51562H3.67188C3.67241 3.03923 3.86189 2.5825 4.19876 2.24563C4.53562 1.90877 4.99235 1.71929 5.46875 1.71875V2.4375C5.18291 2.43782 4.90887 2.55151 4.70676 2.75363C4.50464 2.95575 4.39095 3.22979 4.39062 3.51562Z" fill="#E0E0DE"/>
<path d="M19.8438 11.7812H19.3339C19.1941 11.4608 18.9639 11.1881 18.6715 10.9966C18.379 10.8051 18.0371 10.7031 17.6875 10.7031C17.3379 10.7031 16.996 10.8051 16.7035 10.9966C16.4111 11.1881 16.1809 11.4608 16.0411 11.7812H14.662C14.5223 11.4608 14.2921 11.1881 13.9996 10.9966C13.7072 10.8051 13.3652 10.7031 13.0156 10.7031C12.6661 10.7031 12.3241 10.8051 12.0316 10.9966C11.7392 11.1881 11.509 11.4608 11.3692 11.7812H9.63076C9.49102 11.4608 9.26081 11.1881 8.96836 10.9966C8.67592 10.8051 8.33394 10.7031 7.98438 10.7031C7.63481 10.7031 7.29283 10.8051 7.00039 10.9966C6.70794 11.1881 6.47773 11.4608 6.33799 11.7812H4.39062V12.5C4.39062 12.7859 4.27704 13.0601 4.07485 13.2623C3.87266 13.4645 3.59844 13.5781 3.3125 13.5781C3.02656 13.5781 2.75234 13.4645 2.55015 13.2623C2.34796 13.0601 2.23438 12.7859 2.23438 12.5V11.7812H1.15625C0.775133 11.7817 0.409748 11.9333 0.140257 12.2027C-0.129234 12.4722 -0.280822 12.8376 -0.28125 13.2187V21.8437C-0.280822 22.2249 -0.129234 22.5902 0.140257 22.8597C0.409748 23.1292 0.775133 23.2808 1.15625 23.2812H19.8438C20.2249 23.2808 20.5903 23.1292 20.8597 22.8597C21.1292 22.5902 21.2808 22.2249 21.2812 21.8437V21.125H20.5625V21.8437C20.5623 22.0343 20.4865 22.217 20.3517 22.3517C20.217 22.4865 20.0343 22.5623 19.8438 22.5625H1.15625C0.965695 22.5623 0.783009 22.4865 0.648266 22.3517C0.513524 22.217 0.437726 22.0343 0.4375 21.8437V19.4943C0.655801 19.6211 0.903806 19.6878 1.15625 19.6875H1.51562V20.0469C1.51562 20.5234 1.70494 20.9805 2.04192 21.3174C2.3789 21.6544 2.83594 21.8437 3.3125 21.8437C3.78906 21.8437 4.2461 21.6544 4.58308 21.3174C4.92006 20.9805 5.10938 20.5234 5.10938 20.0469V19.6875H6.1875V20.0469C6.1875 20.5234 6.37681 20.9805 6.71379 21.3174C7.05077 21.6544 7.50781 21.8437 7.98438 21.8437C8.46094 21.8437 8.91798 21.6544 9.25496 21.3174C9.59194 20.9805 9.78125 20.5234 9.78125 20.0469V19.6875H11.2188V20.0469C11.2188 20.5234 11.4081 20.9805 11.745 21.3174C12.082 21.6544 12.5391 21.8437 13.0156 21.8437C13.4922 21.8437 13.9492 21.6544 14.2862 21.3174C14.6232 20.9805 14.8125 20.5234 14.8125 20.0469V19.6875H15.8906V20.0469C15.8906 20.5234 16.0799 20.9805 16.4169 21.3174C16.7539 21.6544 17.2109 21.8437 17.6875 21.8437C18.1641 21.8437 18.6211 21.6544 18.9581 21.3174C19.2951 20.9805 19.4844 20.5234 19.4844 20.0469V19.6875H19.8438C20.0962 19.6877 20.3442 19.621 20.5625 19.4941V20.4062H21.2812V13.2187C21.2808 12.8376 21.1292 12.4722 20.8597 12.2027C20.5903 11.9333 20.2249 11.7817 19.8438 11.7812ZM16.6094 17.8906H18.7656V18.9687H16.6094V17.8906ZM18.7656 17.1719H16.6094V16.0937H18.7656V17.1719ZM16.6094 15.375V13.9365C16.9201 14.1704 17.2985 14.2969 17.6875 14.2969C18.0765 14.2969 18.4549 14.1704 18.7656 13.9365V15.375H16.6094ZM17.6875 11.4219C17.9007 11.4219 18.1092 11.4851 18.2865 11.6036C18.4638 11.722 18.602 11.8904 18.6836 12.0874C18.7652 12.2844 18.7865 12.5012 18.7449 12.7103C18.7033 12.9195 18.6006 13.1116 18.4498 13.2623C18.2991 13.4131 18.107 13.5158 17.8978 13.5574C17.6887 13.599 17.4719 13.5776 17.2749 13.496C17.0779 13.4144 16.9095 13.2763 16.7911 13.099C16.6726 12.9217 16.6094 12.7132 16.6094 12.5C16.6097 12.2142 16.7234 11.9401 16.9255 11.738C17.1276 11.5359 17.4017 11.4222 17.6875 11.4219ZM15.8906 12.5V15.375H14.8125V12.5H15.8906ZM11.9375 17.8906H14.0938V18.9687H11.9375V17.8906ZM14.0938 17.1719H11.9375V16.0937H14.0938V17.1719ZM11.9375 15.375V13.9365C12.2483 14.1704 12.6267 14.2969 13.0156 14.2969C13.4046 14.2969 13.783 14.1704 14.0938 13.9365V15.375H11.9375ZM13.0156 11.4219C13.2289 11.4219 13.4373 11.4851 13.6146 11.6036C13.7919 11.722 13.9301 11.8904 14.0117 12.0874C14.0933 12.2844 14.1146 12.5012 14.073 12.7103C14.0314 12.9195 13.9288 13.1116 13.778 13.2623C13.6272 13.4131 13.4351 13.5158 13.226 13.5574C13.0168 13.599 12.8 13.5776 12.603 13.496C12.406 13.4144 12.2377 13.2763 12.1192 13.099C12.0007 12.9217 11.9375 12.7132 11.9375 12.5C11.9378 12.2142 12.0515 11.9401 12.2536 11.738C12.4558 11.5359 12.7298 11.4222 13.0156 11.4219ZM11.2188 12.5V15.375H9.78125V12.5H11.2188ZM6.90625 17.8906H9.0625V18.9687H6.90625V17.8906ZM9.0625 17.1719H6.90625V16.0937H9.0625V17.1719ZM6.90625 15.375V13.9365C7.21702 14.1704 7.59543 14.2969 7.98438 14.2969C8.37333 14.2969 8.75173 14.1704 9.0625 13.9365V15.375H6.90625ZM7.98438 11.4219C8.19761 11.4219 8.40605 11.4851 8.58335 11.6036C8.76065 11.722 8.89883 11.8904 8.98043 12.0874C9.06203 12.2844 9.08338 12.5012 9.04178 12.7103C9.00018 12.9195 8.8975 13.1116 8.74673 13.2623C8.59595 13.4131 8.40384 13.5158 8.19471 13.5574C7.98557 13.599 7.7688 13.5776 7.57179 13.496C7.37479 13.4144 7.20641 13.2763 7.08795 13.099C6.96948 12.9217 6.90625 12.7132 6.90625 12.5C6.90658 12.2142 7.02028 11.9401 7.22239 11.738C7.42451 11.5359 7.69854 11.4222 7.98438 11.4219ZM6.1875 12.5V15.375H5.10938V12.5H6.1875ZM3.3125 14.2969C3.70152 14.2973 4.08004 14.1707 4.39062 13.9365V15.375H2.23438V13.9365C2.54496 14.1707 2.92348 14.2973 3.3125 14.2969ZM2.23438 17.8906H4.39062V18.9687H2.23438V17.8906ZM4.39062 17.1719H2.23438V16.0937H4.39062V17.1719ZM0.4375 13.2187C0.437726 13.0282 0.513524 12.8455 0.648266 12.7108C0.783009 12.576 0.965695 12.5002 1.15625 12.5H1.51562V15.375H1.15625C0.965695 15.3748 0.783009 15.299 0.648266 15.1642C0.513524 15.0295 0.437726 14.8468 0.4375 14.6562V13.2187ZM1.15625 18.9687C0.965695 18.9685 0.783009 18.8927 0.648266 18.758C0.513524 18.6232 0.437726 18.4405 0.4375 18.25V15.9006C0.655801 16.0274 0.903806 16.094 1.15625 16.0937H1.51562V18.9687H1.15625ZM4.39062 20.0469C4.39062 20.3328 4.27704 20.607 4.07485 20.8092C3.87266 21.0114 3.59844 21.125 3.3125 21.125C3.02656 21.125 2.75234 21.0114 2.55015 20.8092C2.34796 20.607 2.23438 20.3328 2.23438 20.0469V19.6875H4.39062V20.0469ZM5.10938 18.9687V16.0937H6.1875V18.9687H5.10938ZM9.0625 20.0469C9.0625 20.3328 8.94891 20.607 8.74673 20.8092C8.54454 21.0114 8.27031 21.125 7.98438 21.125C7.69844 21.125 7.42421 21.0114 7.22203 20.8092C7.01984 20.607 6.90625 20.3328 6.90625 20.0469V19.6875H9.0625V20.0469ZM9.78125 18.9687V16.0937H11.2188V18.9687H9.78125ZM14.0938 20.0469C14.0938 20.3328 13.9802 20.607 13.778 20.8092C13.5758 21.0114 13.3016 21.125 13.0156 21.125C12.7297 21.125 12.4555 21.0114 12.2533 20.8092C12.0511 20.607 11.9375 20.3328 11.9375 20.0469V19.6875H14.0938V20.0469ZM14.8125 18.9687V16.0937H15.8906V18.9687H14.8125ZM18.7656 20.0469C18.7656 20.3328 18.652 20.607 18.4498 20.8092C18.2477 21.0114 17.9734 21.125 17.6875 21.125C17.4016 21.125 17.1273 21.0114 16.9252 20.8092C16.723 20.607 16.6094 20.3328 16.6094 20.0469V19.6875H18.7656V20.0469ZM20.5625 18.25C20.5623 18.4405 20.4865 18.6232 20.3517 18.758C20.217 18.8927 20.0343 18.9685 19.8438 18.9687H19.4844V16.0937H19.8438C20.0962 16.0939 20.3442 16.0272 20.5625 15.9003V18.25ZM20.5625 14.6562C20.5623 14.8468 20.4865 15.0295 20.3517 15.1642C20.217 15.299 20.0343 15.3748 19.8438 15.375H19.4844V12.5H19.8438C20.0343 12.5002 20.217 12.576 20.3517 12.7108C20.4865 12.8455 20.5623 13.0282 20.5625 13.2187V14.6562Z" fill="black"/>
<path d="M21.2812 3.875H19.125C19.125 3.77969 19.0871 3.68828 19.0197 3.62088C18.9523 3.55349 18.8609 3.51562 18.7656 3.51562H16.0209L13.9645 1.80204C13.8999 1.74821 13.8185 1.71874 13.7344 1.71875H9.42188C9.3552 1.71877 9.28985 1.73736 9.23314 1.77242C9.17644 1.80749 9.13062 1.85766 9.10082 1.9173C9.04503 1.95571 8.24672 2.74504 8.24672 2.74504L7.74723 2.57842C7.59879 2.529 7.44074 2.51556 7.28608 2.53921C7.13143 2.56286 6.98461 2.62293 6.85773 2.71446C6.73085 2.80599 6.62754 2.92636 6.55631 3.06565C6.48508 3.20495 6.44797 3.35917 6.44805 3.51562H5.82812C5.62002 3.51566 5.41636 3.57591 5.24173 3.6891C5.0671 3.8023 4.92895 3.9636 4.84394 4.15356C4.75894 4.34351 4.73071 4.55401 4.76266 4.75965C4.79462 4.96529 4.88539 5.15729 5.02402 5.3125C4.84691 5.50993 4.74928 5.76602 4.75 6.03125C4.75005 6.09603 4.75592 6.16068 4.76752 6.22441L3.41775 7.574C3.3783 7.61345 3.34859 7.66154 3.33096 7.71447L2.97159 8.7926C2.95553 8.84092 2.94993 8.89211 2.95517 8.94277C2.96042 8.99342 2.97638 9.04238 3.002 9.08639C2.99841 9.09263 2.99432 9.09843 2.99108 9.10489L2.43302 10.221C2.30272 10.4824 2.23473 10.7704 2.23438 11.0625C2.23438 11.3484 2.34796 11.6227 2.55015 11.8249C2.75234 12.027 3.02656 12.1406 3.3125 12.1406C3.59844 12.1406 3.87266 12.027 4.07485 11.8249C4.27704 11.6227 4.39062 11.3484 4.39062 11.0625C4.39027 10.7704 4.32228 10.4824 4.19198 10.221L3.87056 9.57819L4.86365 9.24716C4.91658 9.22954 4.96468 9.19982 5.00412 9.16037L5.61758 8.54688H10.5V7.82812H6.33633L6.801 7.3635L7.05508 7.10938H10.5V6.39062H7.77383L8.34375 5.8207L8.3641 5.8411C8.46848 5.94613 8.59521 6.02628 8.73485 6.07555C8.87449 6.12483 9.02345 6.14198 9.17064 6.12571C9.31782 6.10945 9.45944 6.0602 9.58496 5.98162C9.71047 5.90304 9.81665 5.79717 9.89558 5.67188H10.5V4.95312H10.0309C10.0228 4.9118 9.83322 4.33141 9.83322 4.33141L9.93026 4.23438H12.4478L13.782 6.56892L14.406 6.21233L12.9685 3.6967C12.9371 3.64166 12.8916 3.59591 12.8368 3.56411C12.7819 3.5323 12.7197 3.51558 12.6562 3.51562H11.2188C10.9001 3.51522 10.5907 3.40917 10.3388 3.21408C10.0869 3.01899 9.90679 2.74588 9.82671 2.4375H13.6041L15.6604 4.15109C15.725 4.20495 15.8065 4.23443 15.8906 4.23438H18.4062V9.26562H17.6875V4.95312H16.9688V9.26562H5.82812C5.76504 9.26593 5.70301 9.2494 5.64844 9.21774L5.28906 9.84027C5.45302 9.93471 5.63891 9.9844 5.82812 9.98438H18.7656C18.8609 9.98438 18.9523 9.94651 19.0197 9.87912C19.0871 9.81172 19.125 9.72031 19.125 9.625V4.59375H20.9219V8.90625H19.8438V9.625H21.2812C21.3766 9.625 21.468 9.58714 21.5354 9.51974C21.6028 9.45235 21.6406 9.36094 21.6406 9.26562V4.23438C21.6406 4.13906 21.6028 4.04765 21.5354 3.98026C21.468 3.91286 21.3766 3.875 21.2812 3.875ZM3.3125 11.4219C3.21722 11.4218 3.12587 11.3839 3.0585 11.3165C2.99113 11.2491 2.95323 11.1578 2.95312 11.0625C2.95334 10.882 2.99537 10.704 3.0759 10.5424L3.3125 10.0692L3.5491 10.5424C3.62963 10.704 3.67166 10.882 3.67188 11.0625C3.67177 11.1578 3.63387 11.2491 3.5665 11.3165C3.49913 11.3839 3.40778 11.4218 3.3125 11.4219ZM3.76895 8.85445L3.72367 8.80917L3.98597 8.02223L5.46875 6.5395L6.03863 7.10938L4.55589 8.59216L3.76895 8.85445ZM6.54688 6.60113L5.977 6.03125L7.26562 4.74262L7.8355 5.3125L6.54688 6.60113ZM6.03867 4.95312H5.82812C5.73281 4.95312 5.6414 4.91526 5.57401 4.84787C5.50661 4.78047 5.46875 4.68906 5.46875 4.59375C5.46875 4.49844 5.50661 4.40703 5.57401 4.33963C5.6414 4.27224 5.73281 4.23438 5.82812 4.23438H6.75742L6.03867 4.95312ZM9.32125 5.21497C9.30871 5.26024 9.28451 5.30143 9.25107 5.33442C9.21763 5.36741 9.17612 5.39105 9.13069 5.40298C9.08526 5.41491 9.03749 5.41472 8.99215 5.40241C8.94682 5.3901 8.90551 5.36612 8.87235 5.33285L8.59787 5.05838L7.51975 3.98025L7.24528 3.70578C7.23382 3.69424 7.22341 3.6817 7.21419 3.66831C7.18298 3.62354 7.16642 3.5702 7.1668 3.51562C7.16673 3.47303 7.17679 3.43104 7.19615 3.3931C7.21551 3.35516 7.24362 3.32238 7.27815 3.29745C7.31268 3.27252 7.35265 3.25616 7.39475 3.24972C7.43685 3.24328 7.47988 3.24695 7.52029 3.26042L8.23005 3.49716C8.29337 3.51828 8.36133 3.52135 8.42629 3.50602C8.49126 3.49069 8.55067 3.45757 8.59787 3.41037L9.1925 2.8157C9.28845 3.07798 9.43437 3.31916 9.62218 3.52587L9.16775 3.98025C9.12055 4.02745 9.08743 4.08687 9.0721 4.15183C9.05677 4.2168 9.05984 4.28475 9.08096 4.34807L9.31743 5.05703C9.32647 5.08468 9.33102 5.1136 9.33091 5.1427C9.33091 5.16711 9.32766 5.19142 9.32125 5.21497Z" fill="black"/>
<path d="M5.46875 2.4375V1.71875C4.99235 1.71929 4.53562 1.90877 4.19876 2.24563C3.86189 2.5825 3.67241 3.03923 3.67188 3.51562H4.39062C4.39095 3.22979 4.50464 2.95575 4.70676 2.75363C4.90887 2.55151 5.18291 2.43782 5.46875 2.4375Z" fill="black"/>
</g>
<defs>
<clipPath id="clip0">
<rect width="23" height="23" fill="white"/>
</clipPath>
</defs>
</svg>
