<svg width="95" height="62" viewBox="0 0 95 62" fill="none" xmlns="http://www.w3.org/2000/svg">
<path d="M20.4821 43V35.6035H23.3669C24.3513 35.6035 25.1055 35.7767 25.6296 36.123C26.1582 36.4648 26.4226 36.9684 26.4226 37.6338C26.4226 37.9756 26.32 38.2855 26.1149 38.5635C25.9099 38.8369 25.6068 39.0465 25.2058 39.1924C25.6524 39.2972 26.0101 39.5023 26.279 39.8076C26.5524 40.113 26.6892 40.4775 26.6892 40.9014C26.6892 41.5804 26.4385 42.0999 25.9372 42.46C25.4405 42.82 24.7364 43 23.8249 43H20.4821ZM21.7468 39.7529V41.9814H23.8386C24.3672 41.9814 24.7614 41.8835 25.0212 41.6875C25.2855 41.4915 25.4177 41.2158 25.4177 40.8604C25.4177 40.1221 24.8753 39.7529 23.7907 39.7529H21.7468ZM21.7468 38.7412H23.3806C24.5655 38.7412 25.1579 38.3949 25.1579 37.7021C25.1579 37.0094 24.5974 36.6517 23.4763 36.6289H21.7468V38.7412ZM29.7448 38.1533H31.6657C32.5043 38.1624 33.1673 38.3812 33.655 38.8096C34.1426 39.238 34.3864 39.819 34.3864 40.5527C34.3864 41.291 34.1358 41.8835 33.6345 42.3301C33.1332 42.7767 32.4587 43 31.611 43H28.4802V35.6035H29.7448V38.1533ZM37.0251 43H35.7536V35.6035H37.0251V43ZM29.7448 39.1855V41.9678H31.6247C32.0987 41.9678 32.4655 41.847 32.7253 41.6055C32.9851 41.3594 33.1149 41.0244 33.1149 40.6006C33.1149 40.1904 32.9873 39.8555 32.7321 39.5957C32.4815 39.3314 32.1283 39.1947 31.6726 39.1855H29.7448ZM43.3005 37.627C43.3005 37.2806 43.1683 37.0072 42.904 36.8066C42.6397 36.6016 42.2774 36.499 41.8171 36.499C41.3705 36.499 40.9968 36.6152 40.696 36.8477C40.3998 37.0801 40.2517 37.3535 40.2517 37.668H38.9938C38.9938 37.0254 39.2627 36.499 39.8005 36.0889C40.3382 35.6787 41.0104 35.4736 41.8171 35.4736C42.683 35.4736 43.3574 35.6605 43.8405 36.0342C44.3236 36.4033 44.5651 36.932 44.5651 37.6201C44.5651 37.9528 44.4649 38.2581 44.2643 38.5361C44.0638 38.8141 43.779 39.0352 43.4099 39.1992C44.2712 39.4909 44.7018 40.0651 44.7018 40.9219C44.7018 41.6009 44.4398 42.1387 43.9157 42.5352C43.3916 42.9316 42.6921 43.1299 41.8171 43.1299C40.9649 43.1299 40.2608 42.9225 39.7048 42.5078C39.1533 42.0885 38.8776 41.5234 38.8776 40.8125H40.1354C40.1354 41.1725 40.2949 41.4824 40.614 41.7422C40.9375 41.9974 41.3386 42.125 41.8171 42.125C42.3002 42.125 42.6898 42.0133 42.986 41.79C43.2823 41.5667 43.4304 41.2773 43.4304 40.9219C43.4304 40.5072 43.305 40.2109 43.0544 40.0332C42.8083 39.8509 42.4232 39.7598 41.8991 39.7598H40.6345V38.6934H42.0085C42.8698 38.6706 43.3005 38.3151 43.3005 37.627ZM46.4587 43V35.6035H49.3434C50.3278 35.6035 51.0821 35.7767 51.6061 36.123C52.1348 36.4648 52.3991 36.9684 52.3991 37.6338C52.3991 37.9756 52.2966 38.2855 52.0915 38.5635C51.8864 38.8369 51.5834 39.0465 51.1823 39.1924C51.6289 39.2972 51.9867 39.5023 52.2556 39.8076C52.529 40.113 52.6657 40.4775 52.6657 40.9014C52.6657 41.5804 52.4151 42.0999 51.9138 42.46C51.417 42.82 50.7129 43 49.8015 43H46.4587ZM47.7233 39.7529V41.9814H49.8151C50.3438 41.9814 50.738 41.8835 50.9977 41.6875C51.2621 41.4915 51.3942 41.2158 51.3942 40.8604C51.3942 40.1221 50.8519 39.7529 49.7673 39.7529H47.7233ZM47.7233 38.7412H49.3571C50.542 38.7412 51.1345 38.3949 51.1345 37.7021C51.1345 37.0094 50.5739 36.6517 49.4528 36.6289H47.7233V38.7412ZM58.9069 43C58.834 42.8542 58.7748 42.5944 58.7292 42.2207C58.1413 42.8314 57.4395 43.1367 56.6237 43.1367C55.8946 43.1367 55.2953 42.9316 54.8259 42.5215C54.361 42.1068 54.1286 41.5827 54.1286 40.9492C54.1286 40.179 54.4203 39.582 55.0036 39.1582C55.5915 38.7298 56.4164 38.5156 57.4782 38.5156H58.7087V37.9346C58.7087 37.4925 58.5765 37.1416 58.3122 36.8818C58.0479 36.6175 57.6582 36.4854 57.1433 36.4854C56.6921 36.4854 56.3138 36.5993 56.0085 36.8271C55.7031 37.055 55.5505 37.3307 55.5505 37.6543H54.279C54.279 37.2852 54.4089 36.9297 54.6686 36.5879C54.933 36.2415 55.2884 35.9681 55.7351 35.7676C56.1862 35.5671 56.6807 35.4668 57.2184 35.4668C58.0707 35.4668 58.7383 35.681 59.2214 36.1094C59.7045 36.5332 59.9551 37.1188 59.9733 37.8662V41.2705C59.9733 41.9495 60.0599 42.4896 60.2331 42.8906V43H58.9069ZM56.8083 42.0361C57.2048 42.0361 57.5808 41.9336 57.9362 41.7285C58.2917 41.5234 58.5492 41.2568 58.7087 40.9287V39.4111H57.7175C56.168 39.4111 55.3933 39.8646 55.3933 40.7715C55.3933 41.168 55.5254 41.4779 55.7897 41.7012C56.0541 41.9245 56.3936 42.0361 56.8083 42.0361ZM67.3425 36.6289H64.861V43H63.5964V36.6289H61.1628V35.6035H67.3425V36.6289ZM69.9538 38.1533H71.8747C72.7132 38.1624 73.3763 38.3812 73.864 38.8096C74.3516 39.238 74.5954 39.819 74.5954 40.5527C74.5954 41.291 74.3447 41.8835 73.8434 42.3301C73.3421 42.7767 72.6677 43 71.82 43H68.6891V35.6035H69.9538V38.1533ZM69.9538 39.1855V41.9678H71.8337C72.3076 41.9678 72.6745 41.847 72.9343 41.6055C73.194 41.3594 73.3239 41.0244 73.3239 40.6006C73.3239 40.1904 73.1963 39.8555 72.9411 39.5957C72.6905 39.3314 72.3373 39.1947 71.8815 39.1855H69.9538ZM26.9558 58.1045C27.4069 58.1045 27.8011 57.9678 28.1384 57.6943C28.4756 57.4209 28.6625 57.0791 28.6989 56.6689H29.8952C29.8724 57.0928 29.7266 57.4961 29.4577 57.8789C29.1888 58.2617 28.8288 58.5671 28.3776 58.7949C27.931 59.0228 27.4571 59.1367 26.9558 59.1367C25.9486 59.1367 25.1465 58.8018 24.5495 58.1318C23.9571 57.4574 23.6608 56.5368 23.6608 55.3701V55.1582C23.6608 54.4382 23.793 53.7979 24.0573 53.2373C24.3216 52.6768 24.6999 52.2415 25.1921 51.9316C25.6888 51.6217 26.2744 51.4668 26.9489 51.4668C27.7783 51.4668 28.4665 51.7152 29.0134 52.2119C29.5648 52.7087 29.8587 53.3535 29.8952 54.1465H28.6989C28.6625 53.668 28.4802 53.276 28.152 52.9707C27.8285 52.6608 27.4274 52.5059 26.9489 52.5059C26.3063 52.5059 25.8073 52.7383 25.4518 53.2031C25.1009 53.6634 24.9255 54.3311 24.9255 55.2061V55.4453C24.9255 56.2975 25.1009 56.9538 25.4518 57.4141C25.8028 57.8743 26.3041 58.1045 26.9558 58.1045ZM33.6208 55.8486H32.6979V59H31.4265V51.6035H32.6979V54.7344H33.5251L36.0134 51.6035H37.5446L34.6188 55.1582L37.7907 59H36.1843L33.6208 55.8486ZM38.3923 55.2334C38.3923 54.5088 38.5336 53.8571 38.8161 53.2783C39.1032 52.6995 39.4997 52.2529 40.0056 51.9385C40.516 51.624 41.097 51.4668 41.7487 51.4668C42.7559 51.4668 43.5694 51.8154 44.1892 52.5127C44.8135 53.21 45.1257 54.1374 45.1257 55.2949V55.3838C45.1257 56.1038 44.9867 56.751 44.7087 57.3252C44.4352 57.8949 44.041 58.3392 43.5261 58.6582C43.0156 58.9772 42.4278 59.1367 41.7624 59.1367C40.7598 59.1367 39.9463 58.7881 39.322 58.0908C38.7022 57.3936 38.3923 56.4707 38.3923 55.3223V55.2334ZM39.6638 55.3838C39.6638 56.2041 39.8529 56.8626 40.2311 57.3594C40.614 57.8561 41.1244 58.1045 41.7624 58.1045C42.405 58.1045 42.9154 57.8538 43.2936 57.3525C43.6719 56.8467 43.861 56.1403 43.861 55.2334C43.861 54.4222 43.6673 53.766 43.28 53.2646C42.8972 52.7588 42.3867 52.5059 41.7487 52.5059C41.1244 52.5059 40.6208 52.7542 40.238 53.251C39.8552 53.7477 39.6638 54.4587 39.6638 55.3838ZM52.9597 55.3838C52.9597 56.5094 52.7022 57.4163 52.1872 58.1045C51.6722 58.7926 50.975 59.1367 50.0954 59.1367C49.1976 59.1367 48.4912 58.8519 47.9763 58.2822V61.8438H46.7116V51.6035H47.8669L47.9284 52.4238C48.4434 51.7858 49.1589 51.4668 50.0749 51.4668C50.9636 51.4668 51.6654 51.8018 52.1804 52.4717C52.6999 53.1416 52.9597 54.0736 52.9597 55.2676V55.3838ZM51.695 55.2402C51.695 54.4062 51.5173 53.7477 51.1618 53.2646C50.8063 52.7816 50.3187 52.54 49.6989 52.54C48.9333 52.54 48.3591 52.8796 47.9763 53.5586V57.0928C48.3545 57.7673 48.9333 58.1045 49.7126 58.1045C50.3187 58.1045 50.7995 57.8652 51.155 57.3867C51.515 56.9036 51.695 56.1882 51.695 55.2402ZM56.9108 57.1475L58.6335 51.6035H59.987L57.0134 60.1416C56.5531 61.3721 55.8216 61.9873 54.819 61.9873L54.5798 61.9668L54.1081 61.8779V60.8525L54.4499 60.8799C54.8783 60.8799 55.211 60.7933 55.4479 60.6201C55.6895 60.4469 55.8877 60.1302 56.0427 59.6699L56.3229 58.918L53.6843 51.6035H55.0651L56.9108 57.1475ZM62.5026 54.7412H64.28C64.3757 53.7568 64.7243 52.9661 65.3259 52.3691C65.932 51.7676 66.6953 51.4668 67.6159 51.4668C68.5821 51.4668 69.3727 51.7926 69.988 52.4443C70.6032 53.096 70.9359 53.9437 70.986 54.9873L70.9929 55.3838C70.9929 56.1038 70.8516 56.7533 70.569 57.332C70.2865 57.9108 69.89 58.3574 69.3796 58.6719C68.8692 58.9818 68.2858 59.1367 67.6296 59.1367C66.6771 59.1367 65.8978 58.8268 65.2917 58.207C64.6856 57.5827 64.3461 56.7738 64.2731 55.7803H62.5026V59H61.238V51.6035H62.5026V54.7412ZM65.5241 55.3838C65.5241 56.2041 65.7132 56.8626 66.0915 57.3594C66.4743 57.8561 66.987 58.1045 67.6296 58.1045C68.2722 58.1045 68.7803 57.8516 69.154 57.3457C69.5323 56.8398 69.7214 56.1357 69.7214 55.2334C69.7214 54.4268 69.53 53.7705 69.1472 53.2646C68.7643 52.7588 68.2539 52.5059 67.6159 52.5059C66.987 52.5059 66.4811 52.7542 66.0983 53.251C65.7155 53.7477 65.5241 54.4587 65.5241 55.3838Z" fill="#1066B1"/>
<path d="M38 4C36.35 4 35 5.35 35 7V17C35 17.55 35.45 18 36 18H37.0508C37.2982 19.6854 38.7501 21 40.5 21C42.2499 21 43.7018 19.6854 43.9492 18H47.0508C47.2982 19.6854 48.7501 21 50.5 21C52.2499 21 53.7018 19.6854 53.9492 18H55C55.55 18 56 17.55 56 17V11C56 10.81 55.9496 10.6305 55.8496 10.4805L52.7402 5.42969C52.1902 4.52969 51.2297 4 50.1797 4H38ZM38 6H41V11H37V7C37 6.45 37.45 6 38 6ZM43 6H47V11H43V6ZM49 6H50.1797C50.5297 6 50.8491 6.18047 51.0391 6.48047L53.8301 11H49V6ZM40.5 16C41.3403 16 42 16.6597 42 17.5C42 18.3403 41.3403 19 40.5 19C39.6597 19 39 18.3403 39 17.5C39 16.6597 39.6597 16 40.5 16ZM50.5 16C51.3403 16 52 16.6597 52 17.5C52 18.3403 51.3403 19 50.5 19C49.6597 19 49 18.3403 49 17.5C49 16.6597 49.6597 16 50.5 16Z" fill="#1066B1"/>
</svg>
